{
  "accessors": [
    {
      "bufferView": 2,
      "componentType": 5126,
      "count": 5814,
      "max": [
        14.227214813232422,
        33.60111618041992,
        12.524589538574219
      ],
      "min": [
        -10.95611572265625,
        -41.32038497924805,
        -0.2159619927406311
      ],
      "type": "VEC3"
    },
    {
      "bufferView": 2,
      "byteOffset": 69768,
      "componentType": 5126,
      "count": 5814,
      "max": [
        0.9987013339996338,
        0.9975457787513733,
        0.9998223781585693
      ],
      "min": [
        -0.999958872795105,
        -0.9990622401237488,
        -0.9998074769973755
      ],
      "type": "VEC3"
    },
    {
      "bufferView": 1,
      "componentType": 5126,
      "count": 5814,
      "max": [
        0.9955289959907532,
        0.9918490052223206
      ],
      "min": [
        0.008829000405967236,
        0.011095000430941582
      ],
      "type": "VEC2"
    },
    {
      "bufferView": 0,
      "componentType": 5125,
      "count": 17670,
      "type": "SCALAR"
    },
    {
      "bufferView": 2,
      "byteOffset": 139536,
      "componentType": 5126,
      "count": 486,
      "max": [
        10.38812255859375,
        36.080596923828125,
        5.946075916290283
      ],
      "min": [
        -7.810338973999023,
        -38.50979232788086,
        -1.3999969959259033
      ],
      "type": "VEC3"
    },
    {
      "bufferView": 2,
      "byteOffset": 145368,
      "componentType": 5126,
      "count": 486,
      "max": [
        0.6054472327232361,
        0.9144784212112427,
        0.9999953508377075
      ],
      "min": [
        -0.9938132166862488,
        -0.9987261295318604,
        -0.06581999361515045
      ],
      "type": "VEC3"
    },
    {
      "bufferView": 1,
      "byteOffset": 46512,
      "componentType": 5126,
      "count": 486,
      "max": [
        0.9933980107307434,
        0.9925330281257629
      ],
      "min": [
        0.0064860000275075436,
        0.005129000172019005
      ],
      "type": "VEC2"
    },
    {
      "bufferView": 0,
      "byteOffset": 70680,
      "componentType": 5125,
      "count": 1758,
      "type": "SCALAR"
    },
    {
      "bufferView": 2,
      "byteOffset": 151200,
      "componentType": 5126,
      "count": 4,
      "max": [
        -1.6071070432662964,
        6.506144046783447,
        5.767876148223877
      ],
      "min": [
        -2.2955400943756104,
        5.03190803527832,
        5.092109203338623
      ],
      "type": "VEC3"
    },
    {
      "bufferView": 2,
      "byteOffset": 151248,
      "componentType": 5126,
      "count": 4,
      "max": [
        0.3250311613082886,
        0.9800485372543335,
        0.04537700116634369
      ],
      "min": [
        -0.7855179905891418,
        -0.2424321174621582,
        -0.9141014218330383
      ],
      "type": "VEC3"
    },
    {
      "bufferView": 1,
      "byteOffset": 50400,
      "componentType": 5126,
      "count": 4,
      "max": [
        0.0,
        0.0
      ],
      "min": [
        0.0,
        0.0
      ],
      "type": "VEC2"
    },
    {
      "bufferView": 0,
      "byteOffset": 77712,
      "componentType": 5125,
      "count": 6,
      "type": "SCALAR"
    },
    {
      "bufferView": 2,
      "byteOffset": 151296,
      "componentType": 5126,
      "count": 4877,
      "max": [
        12.027031898498535,
        33.16820526123047,
        10.020264625549316
      ],
      "min": [
        -8.680672645568848,
        -34.0992546081543,
        -1.3687729835510254
      ],
      "type": "VEC3"
    },
    {
      "bufferView": 2,
      "byteOffset": 209820,
      "componentType": 5126,
      "count": 4877,
      "max": [
        0.9999706149101257,
        0.9999752640724182,
        0.9999883770942688
      ],
      "min": [
        -0.9999468922615051,
        -0.9985093474388123,
        -0.9923049807548523
      ],
      "type": "VEC3"
    },
    {
      "bufferView": 1,
      "byteOffset": 50432,
      "componentType": 5126,
      "count": 4877,
      "max": [
        0.9890909790992737,
        0.9929530024528503
      ],
      "min": [
        0.0031999999191612005,
        0.006180000025779009
      ],
      "type": "VEC2"
    },
    {
      "bufferView": 0,
      "byteOffset": 77736,
      "componentType": 5125,
      "count": 13977,
      "type": "SCALAR"
    },
    {
      "bufferView": 2,
      "byteOffset": 268344,
      "componentType": 5126,
      "count": 1467,
      "max": [
        10.276580810546875,
        8.395110130310059,
        10.076104164123535
      ],
      "min": [
        -7.027154922485352,
        -28.41219711303711,
        0.022089999169111252
      ],
      "type": "VEC3"
    },
    {
      "bufferView": 2,
      "byteOffset": 285948,
      "componentType": 5126,
      "count": 1467,
      "max": [
        0.9780033826828003,
        0.9898067712783813,
        1.0
      ],
      "min": [
        -0.9943426251411438,
        -0.991417646408081,
        -0.9941626191139221
      ],
      "type": "VEC3"
    },
    {
      "bufferView": 1,
      "byteOffset": 89448,
      "componentType": 5126,
      "count": 1467,
      "max": [
        0.9839770197868347,
        0.9842100143432617
      ],
      "min": [
        0.00647500017657876,
        0.018914999440312386
      ],
      "type": "VEC2"
    },
    {
      "bufferView": 0,
      "byteOffset": 133644,
      "componentType": 5125,
      "count": 2133,
      "type": "SCALAR"
    }
  ],
  "asset": {
    "extras": {
      "author": "bocharova (https://sketchfab.com/apsnu)",
      "license": "CC-BY-NC-4.0 (http://creativecommons.org/licenses/by-nc/4.0/)",
      "source": "https://sketchfab.com/3d-models/swamp-location-7ede00c0dfe14574bd8f06ee36020609",
      "title": "swamp location"
    },
    "generator": "Sketchfab-12.68.0",
    "version": "2.0"
  },
  "bufferViews": [
    {
      "buffer": 0,
      "byteLength": 142176,
      "name": "floatBufferViews",
      "target": 34963
    },
    {
      "buffer": 0,
      "byteLength": 101184,
      "byteOffset": 142176,
      "byteStride": 8,
      "name": "floatBufferViews",
      "target": 34962
    },
    {
      "buffer": 0,
      "byteLength": 303552,
      "byteOffset": 243360,
      "byteStride": 12,
      "name": "floatBufferViews",
      "target": 34962
    }
  ],
  "buffers": [
    {
      "byteLength": 546912,
      "uri": "scene.bin"
    }
  ],
  "images": [
    {
      "uri": "textures/map_1blinn6SG_baseColor.png"
    },
    {
      "uri": "textures/map_1lambert4SG_baseColor.png"
    },
    {
      "uri": "textures/map_1lambert5SG_baseColor.png"
    },
    {
      "uri": "textures/map_1object_baseColor.png"
    },
    {
      "uri": "textures/map_1object_emissive.png"
    }
  ],
  "materials": [
    {
      "alphaCutoff": 0.65,
      "alphaMode": "MASK",
      "doubleSided": true,
      "name": "map_1blinn6SG",
      "pbrMetallicRoughness": {
        "baseColorTexture": {
          "index": 0
        },
        "metallicFactor": 0.0,
        "roughnessFactor": 0.6
      }
    },
    {
      "doubleSided": true,
      "name": "map_1lambert4SG",
      "pbrMetallicRoughness": {
        "baseColorTexture": {
          "index": 1
        },
        "metallicFactor": 0.0,
        "roughnessFactor": 0.6
      }
    },
    {
      "alphaMode": "BLEND",
      "doubleSided": true,
      "name": "map_1lambert5SG",
      "pbrMetallicRoughness": {
        "baseColorTexture": {
          "index": 2
        },
        "metallicFactor": 0.0,
        "roughnessFactor": 0.6
      }
    },
    {
      "alphaCutoff": 0.01,
      "alphaMode": "MASK",
      "doubleSided": true,
      "emissiveFactor": [
        0.45,
        0.45,
        0.45
      ],
      "emissiveTexture": {
        "index": 4
      },
      "name": "map_1object",
      "pbrMetallicRoughness": {
        "baseColorTexture": {
          "index": 3
        },
        "metallicFactor": 0.0,
        "roughnessFactor": 0.6
      }
    }
  ],
  "meshes": [
    {
      "name": "Object_0",
      "primitives": [
        {
          "attributes": {
            "NORMAL": 1,
            "POSITION": 0,
            "TEXCOORD_0": 2
          },
          "indices": 3,
          "material": 0,
          "mode": 4
        }
      ]
    },
    {
      "name": "Object_1",
      "primitives": [
        {
          "attributes": {
            "NORMAL": 5,
            "POSITION": 4,
            "TEXCOORD_0": 6
          },
          "indices": 7,
          "material": 1,
          "mode": 4
        }
      ]
    },
    {
      "name": "Object_2",
      "primitives": [
        {
          "attributes": {
            "NORMAL": 9,
            "POSITION": 8,
            "TEXCOORD_0": 10
          },
          "indices": 11,
          "material": 3,
          "mode": 4
        }
      ]
    },
    {
      "name": "Object_3",
      "primitives": [
        {
          "attributes": {
            "NORMAL": 13,
            "POSITION": 12,
            "TEXCOORD_0": 14
          },
          "indices": 15,
          "material": 3,
          "mode": 4
        }
      ]
    },
    {
      "name": "Object_4",
      "primitives": [
        {
          "attributes": {
            "NORMAL": 17,
            "POSITION": 16,
            "TEXCOORD_0": 18
          },
          "indices": 19,
          "material": 2,
          "mode": 4
        }
      ]
    }
  ],
  "nodes": [
    {
      "children": [
        1
      ],
      "matrix": [
        1.0,
        0.0,
        0.0,
        0.0,
        0.0,
        2.220446049250313e-16,
        -1.0,
        0.0,
        0.0,
        1.0,
        2.220446049250313e-16,
        0.0,
        0.0,
        0.0,
        0.0,
        1.0
      ],
      "name": "Sketchfab_model"
    },
    {
      "children": [
        2,
        3,
        4,
        5,
        6
      ],
      "name": "map_1.obj.cleaner"
    },
    {
      "mesh": 0,
      "name": "Object_2"
    },
    {
      "mesh": 1,
      "name": "Object_3"
    },
    {
      "mesh": 2,
      "name": "Object_4"
    },
    {
      "mesh": 3,
      "name": "Object_5"
    },
    {
      "mesh": 4,
      "name": "Object_6"
    }
  ],
  "samplers": [
    {
      "magFilter": 9729,
      "minFilter": 9987,
      "wrapS": 10497,
      "wrapT": 10497
    }
  ],
  "scene": 0,
  "scenes": [
    {
      "name": "Sketchfab_Scene",
      "nodes": [
        0
      ]
    }
  ],
  "textures": [
    {
      "sampler": 0,
      "source": 0
    },
    {
      "sampler": 0,
      "source": 1
    },
    {
      "sampler": 0,
      "source": 2
    },
    {
      "sampler": 0,
      "source": 3
    },
    {
      "sampler": 0,
      "source": 4
    }
  ]
}
